<?xml version="1.0" encoding="UTF-8"?>
<svg id="_Слой_2" data-name="Слой 2" xmlns="http://www.w3.org/2000/svg" viewBox="0 0 60.57 71.82">
  <defs>
    <style>
      .cls-1 {
        fill: #64bf43;
      }

      .cls-2 {
        fill: #508c34;
      }
    </style>
  </defs>
  <g id="_Слой_1-2" data-name="Слой 1">
    <g>
      <polygon class="cls-1" points="15.14 41.53 0 56.68 0 26.39 15.14 41.53"/>
      <rect class="cls-2" x="34.72" y="45.97" width="21.41" height="21.41" transform="translate(-26.77 48.72) rotate(-45)"/>
      <polygon class="cls-1" points="45.42 71.82 15.14 71.82 30.28 56.68 45.42 71.82"/>
      <rect class="cls-1" x="4.44" y="45.97" width="21.41" height="21.41" transform="translate(-35.64 27.31) rotate(-45)"/>
      <polygon class="cls-2" points="60.57 56.68 45.42 41.53 60.57 26.39 60.57 56.68"/>
      <path class="cls-1" d="M30.33.03l.03.17c-.02,4.85-.03,9.7-.02,14.54l-.04.61-.04.09c-4.2,1.91-8.41,3.83-12.61,5.74l-.1-.02L30.27,0l.06.03Z"/>
      <path class="cls-2" d="M43.02,21.19h-.12c-4.19-1.9-8.39-3.81-12.58-5.72l-.03-.08s-.02-.02,0-.03c0-5.05-.06-10.1,0-15.15,0-.05-.02-.14.03-.17l12.69,21.16Z"/>
      <polygon class="cls-1" points="30.3 15.37 30.36 15.44 30.36 28.61 30.3 28.69 17.54 21.14 30.3 15.34 30.3 15.37"/>
      <polygon class="cls-2" points="43.02 21.17 30.3 28.69 30.3 15.37 43.02 21.17"/>
      <path class="cls-1" d="M30.3,31.13l.04.42c.01,3.26.02,6.53.02,9.79l-.03.17-.06.02-12.69-17.91,12.73,7.5Z"/>
      <path class="cls-2" d="M30.3,31.13c4.03-2.38,8.04-4.79,12.08-7.15.17-.1.34-.21.51-.3.03-.01.08-.07.1-.02l-12.66,17.86c-.05-.03-.03-.12-.03-.17-.04-3.41.03-6.81,0-10.22"/>
    </g>
  </g>
</svg>