<?xml version="1.0" encoding="UTF-8"?>
<svg id="_Слой_2" data-name="Слой 2" xmlns="http://www.w3.org/2000/svg" viewBox="0 0 225.88 52.87">
  <defs>
    <style>
      .cls-1 {
        fill: #64bf43;
      }
    </style>
  </defs>
  <g id="_Слой_1-2" data-name="Слой 1">
    <g>
      <path class="cls-1" d="M147.37,52.28c-4.24,0-8.29-1.11-12.14-3.33-3.85-2.22-6.97-5.32-9.35-9.3-2.38-3.98-3.57-8.48-3.57-13.51s1.19-9.53,3.57-13.51c2.38-3.98,5.5-7.08,9.35-9.3,3.85-2.22,7.9-3.33,12.14-3.33,2.74,0,5.19.31,7.34.93,2.15.62,4.11,1.55,5.87,2.79,1.76,1.24,3.36,2.87,4.8,4.89l-1.96,2.15V1.17h12.82v49.93h-12.82v-9.59l1.96,2.06c-2.15,3-4.67,5.21-7.54,6.61-2.87,1.4-6.36,2.1-10.48,2.1M149.62,39.94c2.55,0,4.88-.6,7-1.81,2.12-1.21,3.77-2.85,4.94-4.94,1.18-2.09,1.76-4.44,1.76-7.05s-.59-4.88-1.76-7c-1.17-2.12-2.82-3.78-4.94-4.99-2.12-1.21-4.45-1.81-7-1.81s-4.98.6-7.1,1.81c-2.12,1.21-3.79,2.87-4.99,4.99-1.21,2.12-1.81,4.45-1.81,7s.6,4.96,1.81,7.05c1.21,2.09,2.87,3.74,4.99,4.94,2.12,1.21,4.49,1.81,7.1,1.81"/>
      <path class="cls-1" d="M201.63,37.95L184.27,1.17h12.15l11.44,25.64-6.22,11.14ZM192,51.1l9.28-20.89,1.05-2.18,11.67-26.86h11.87l-22.36,49.93h-11.52Z"/>
      <path class="cls-1" d="M112,10.67c-1.54-3.2-3.72-5.68-6.56-7.44-2.84-1.76-6.09-2.64-9.74-2.64-3.85,0-7.26.93-10.23,2.79-2.39,1.5-4.49,3.52-6.31,6.06-1.26-2.38-3.05-4.36-5.39-5.91-2.94-1.96-6.2-2.94-9.79-2.94-3.13,0-6.05.72-8.76,2.15-1.18.63-2.28,1.41-3.31,2.34v10.41c.07-.16,1.42-1.03,3.03-1.61,1.99-.71,3.72-.96,5.42-.96,1.83,0,3.39.44,4.7,1.32,1.3.88,2.32,2.15,3.04,3.82.72,1.66,1.08,3.54,1.08,5.63v28h13.41v-28c0-2.09.42-3.97,1.27-5.63.85-1.66,2.01-2.94,3.48-3.82,1.47-.88,3.05-1.32,4.75-1.32,1.83,0,3.39.44,4.7,1.32,1.3.88,2.32,2.15,3.04,3.82.72,1.66,1.08,3.54,1.08,5.63v28h13.41v-30.15c0-4.05-.77-7.67-2.3-10.87"/>
      <path class="cls-1" d="M31.72,1.76v28c0,2.09-.42,3.96-1.27,5.63-.85,1.66-2.01,2.94-3.48,3.82-1.47.88-3.05,1.32-4.75,1.32-1.83,0-3.39-.44-4.7-1.32-1.31-.88-2.32-2.15-3.04-3.82-.72-1.67-1.08-3.54-1.08-5.63V1.76H0v30.15c0,4.05.77,7.67,2.3,10.87,1.54,3.2,3.72,5.68,6.56,7.44,2.84,1.76,6.09,2.64,9.74,2.64,3.85,0,7.26-.93,10.23-2.79,1.02-.64,1.98-1.37,2.89-2.2v4.99h13.41V1.76h-13.41Z"/>
    </g>
  </g>
</svg>